HIERARCHY
ROOT root
{
	OFFSET	0	13.1	24.9
	CHANNELS 6  Xposition Yposition Zposition Xrotation Yrotation Zrotation
	JOINT spine_1
	{
		OFFSET	0	9.99999	0
		CHANNELS 3  Xrotation Yrotation Zrotation
		JOINT spine_2
		{
			OFFSET	0	112	-10
			CHANNELS 3  Xrotation Yrotation Zrotation
			JOINT spine_3
			{
				OFFSET	0	206.5	19.3
				CHANNELS 3  Xrotation Yrotation Zrotation
				JOINT spine_4
				{
					OFFSET	0	110.4	14.6
					CHANNELS 3  Xrotation Yrotation Zrotation
					JOINT neck_1
					{
						OFFSET	0	71.8	-50.3
						CHANNELS 3  Xrotation Yrotation Zrotation
						JOINT neck_2
						{
							OFFSET	0	86.2	-25.8
							CHANNELS 3  Xrotation Yrotation Zrotation
							JOINT head_ee
							{
								OFFSET	0	179.8	-8.7
								CHANNELS 3  Xrotation Yrotation Zrotation
								End Site
								{
									OFFSET	1	0	0
								}
							}
						}
					}
					JOINT left_clavicle
					{
						OFFSET	-43.2	22.4	-70.8
						CHANNELS 3  Xrotation Yrotation Zrotation
						JOINT left_shoulder
						{
							OFFSET	-93.9	-5.79999	48.7
							CHANNELS 3  Xrotation Yrotation Zrotation
							JOINT left_elbow
							{
								OFFSET	-291.4	-30.8	15.2
								CHANNELS 3  Xrotation Yrotation Zrotation
								JOINT left_lowarm_twist
								{
									OFFSET	-110.7	-3.89999	13.6
									CHANNELS 3  Xrotation Yrotation Zrotation
									JOINT left_hand
									{
										OFFSET	-110.7	-3.89999	13.6
										CHANNELS 3  Xrotation Yrotation Zrotation
										JOINT left_ee
										{
											OFFSET	-80.8	-5.10001	12.1
											CHANNELS 3  Xrotation Yrotation Zrotation
											End Site
											{
												OFFSET	1	0	0
											}
										}
									}
								}
							}
						}
					}
					JOINT right_clavicle
					{
						OFFSET	43.2	22.4	-70.8
						CHANNELS 3  Xrotation Yrotation Zrotation
						JOINT right_shoulder
						{
							OFFSET	93.9	-5.79999	48.7
							CHANNELS 3  Xrotation Yrotation Zrotation
							JOINT right_elbow
							{
								OFFSET	291.4	-30.8	15.2
								CHANNELS 3  Xrotation Yrotation Zrotation
								JOINT right_lowarm_twist
								{
									OFFSET	110.7	-3.89999	13.6
									CHANNELS 3  Xrotation Yrotation Zrotation
									JOINT right_hand
									{
										OFFSET	110.7	-3.89999	13.6
										CHANNELS 3  Xrotation Yrotation Zrotation
										JOINT right_ee
										{
											OFFSET	80.8	-5.10001	12.1
											CHANNELS 3  Xrotation Yrotation Zrotation
											End Site
											{
												OFFSET	1	0	0
											}
										}
									}
								}
							}
						}
					}
				}
			}
		}
	}
	JOINT left_hip
	{
		OFFSET	-82.8	-127.5	0.300001
		CHANNELS 3  Xrotation Yrotation Zrotation
		JOINT left_knee
		{
			OFFSET	-28.2	-396.7	2.2
			CHANNELS 3  Xrotation Yrotation Zrotation
			JOINT left_ankle
			{
				OFFSET	-11.7	-411.3	35.4
				CHANNELS 3  Xrotation Yrotation Zrotation
				JOINT left_toes
				{
					OFFSET	0	-60	-88.6
					CHANNELS 3  Xrotation Yrotation Zrotation
					JOINT left_foot_ee
					{
						OFFSET	-22.5	-16.5	-42.2
						CHANNELS 3  Xrotation Yrotation Zrotation
						End Site
						{
							OFFSET	1	0	0
						}
					}
				}
			}
		}
	}
	JOINT right_hip
	{
		OFFSET	82.8	-127.5	0.300001
		CHANNELS 3  Xrotation Yrotation Zrotation
		JOINT right_knee
		{
			OFFSET	28.2	-396.7	2.2
			CHANNELS 3  Xrotation Yrotation Zrotation
			JOINT right_ankle
			{
				OFFSET	11.7	-411.3	35.4
				CHANNELS 3  Xrotation Yrotation Zrotation
				JOINT right_toes
				{
					OFFSET	0	-60	-88.6
					CHANNELS 3  Xrotation Yrotation Zrotation
					JOINT right_foot_ee
					{
						OFFSET	22.5	-16.5	-42.2
						CHANNELS 3  Xrotation Yrotation Zrotation
						End Site
						{
							OFFSET	1	0	0
						}
					}
				}
			}
		}
	}
}
MOTION
Frames: 13
Frame Time: 0.02
1126.44 723.539 -1345.59 -76.7548 80.7739 72.0786 3.40329 0.355303 1.94114 3.40536 0.231087 1.9598 3.41242 -0.0686914 1.97218 3.40707 0.243579 1.95829 -10.3592 5.20783 -1.2743 -10.3933 10.6699 0.0915565 -0.0 0.0 -0.0 -1.5441 14.1842 -0.836118 -15.1072 -50.1567 65.5927 0.433043 -12.1076 0.0459261 -51.7587 -4.27926 4.77171 2.60042 14.6319 22.8297 -0.0 0.0 -0.0 9.42873 -22.0938 -16.2145 -33.5648 33.5222 -56.4609 1.07006 27.9263 -0.266072 57.5737 1.56274 6.87965 1.50977 -15.3942 -15.8375 0.0 0.0 0.0 11.5951 18.2264 -1.68182 -1.29927 0.0513127 0.192783 29.2597 -31.7334 -4.8214 -9.98104 0.0 0.0 -0.0 0.0 -0.0 13.8564 -8.07695 -1.07527 -6.35634 -0.209037 -0.952616 30.6724 15.2867 4.24934 -35.9661 0.0 0.0 0.0 0.0 0.0 
1119.73 722.098 -1340.02 -70.3444 80.0745 65.6362 3.51563 0.395113 1.91413 3.51762 0.272534 1.93539 3.52596 -0.0201226 1.95437 3.52074 0.288728 1.93304 -10.1011 5.66385 -2.04324 -10.1335 12.0414 -0.566076 -0.0 0.0 -0.0 -1.5046 14.7566 -0.683896 -14.2738 -50.0772 65.4796 0.500878 -13.935 0.0612122 -52.4917 -4.36651 4.80683 1.95039 18.3262 19.6174 -0.0 0.0 -0.0 8.97153 -22.5917 -15.4435 -34.3326 34.5841 -55.7437 1.09097 28.3876 -0.275941 56.655 1.48534 6.79093 1.21032 -19.4282 -15.263 0.0 0.0 0.0 11.3797 18.6096 -1.46102 -0.938602 0.0375082 0.139155 25.097 -28.7112 -4.09291 -10.8145 0.0 0.0 -0.0 0.0 -0.0 13.3848 -8.63747 0.00440293 -5.56635 -0.188831 -0.833067 31.8162 15.7412 4.38739 -36.058 0.0 0.0 0.0 0.0 0.0 
1115.69 722.967 -1338.34 -71.0863 80.1776 66.3713 3.59417 0.383821 1.90391 3.59615 0.261916 1.92446 3.60404 -0.026345 1.94202 3.59888 0.280634 1.92182 -9.94416 5.84371 -3.04262 -9.96548 13.053 -1.51382 -0.0 0.0 -0.0 -1.36837 15.8349 -0.30238 -13.7914 -50.5374 65.258 0.549193 -15.2194 0.073373 -53.964 -4.54307 4.87399 1.24956 21.8948 16.2876 -0.0 0.0 -0.0 8.68158 -24.0707 -14.7922 -35.2955 35.3127 -55.0677 1.10417 28.6767 -0.282245 55.9483 1.42679 6.72185 0.842899 -21.7555 -13.769 0.0 0.0 0.0 10.6205 18.3439 -1.24845 -0.843457 0.0338099 0.125022 22.0465 -26.532 -3.57066 -11.3901 0.0 0.0 -0.0 0.0 -0.0 12.832 -8.64972 0.422642 -5.01501 -0.173753 -0.749798 32.7251 16.0662 4.4945 -36.0673 0.0 0.0 0.0 0.0 0.0 
1113.45 719.165 -1336.53 -69.1693 79.8104 64.2496 3.66742 0.37203 1.85946 3.66931 0.252975 1.87936 3.6767 -0.0260967 1.89612 3.67179 0.273634 1.87646 -10.3607 6.27506 -3.2801 -10.3949 14.0222 -1.58399 -0.0 0.0 -0.0 -1.33067 15.9807 -0.220938 -13.6486 -50.5365 64.8643 0.580118 -16.0334 0.0817034 -54.6471 -4.62556 4.90361 0.465219 24.2895 12.3705 -0.0 0.0 -0.0 8.38042 -24.1875 -14.3404 -37.0917 37.5039 -53.9917 1.06776 27.8752 -0.264995 54.904 1.34182 6.61847 -0.227365 -28.6075 -9.95682 0.0 0.0 0.0 10.1286 19.0824 -0.495857 0.85379 -0.0360982 -0.126044 20.3243 -24.1694 -3.23935 -11.435 0.0 0.0 -0.0 0.0 -0.0 12.8246 -10.768 0.0787459 -4.01927 -0.144493 -0.599786 32.6665 15.7689 4.47907 -36.1019 0.0 0.0 0.0 0.0 0.0 
1109.59 716.192 -1334.69 -68.3361 79.4291 63.642 3.77677 0.342888 1.84033 3.77863 0.225109 1.85841 3.78497 -0.0470561 1.8714 3.78017 0.249035 1.85535 -10.2958 6.54111 -3.69685 -10.3272 14.8026 -1.92975 -0.0 0.0 -0.0 -1.19009 15.5948 -0.0552183 -13.6959 -49.8276 64.0887 0.621697 -17.1174 0.0935654 -54.3075 -4.58451 4.88901 -0.0653594 24.6173 9.41139 -0.0 0.0 -0.0 8.10855 -24.3154 -13.933 -37.8801 38.2643 -53.7684 1.05454 27.5814 -0.258847 55.0631 1.35464 6.63432 -0.560684 -29.237 -8.37541 0.0 0.0 0.0 9.60611 19.7792 -0.325168 2.64716 -0.118026 -0.389006 18.2552 -23.7058 -2.92839 -11.2031 0.0 0.0 -0.0 0.0 -0.0 12.4808 -9.98263 -0.0448848 -2.56302 -0.0970118 -0.381344 34.0464 16.4421 4.6445 -36.2724 0.0 0.0 0.0 0.0 0.0 
1109.82 716.497 -1335.49 -67.4727 78.9513 62.8096 3.87095 0.321879 1.8053 3.87274 0.20637 1.82211 3.87833 -0.0573479 1.83286 3.87372 0.232789 1.81892 -10.9644 7.10672 -3.56175 -11.029 15.773 -1.55444 -0.0 0.0 -0.0 -1.11308 15.2115 0.0120789 -13.0044 -49.5522 64.1984 0.672559 -18.4264 0.109091 -54.1866 -4.5699 4.88375 -0.498019 26.1288 7.52377 -0.0 0.0 -0.0 8.07533 -24.3576 -13.8799 -38.4066 38.9466 -53.545 1.04347 27.3341 -0.253742 54.8097 1.33424 6.60906 -1.07172 -29.0657 -5.55103 0.0 0.0 0.0 9.79127 20.2492 -0.0847071 4.12223 -0.19157 -0.603332 15.8746 -22.1729 -2.5379 -12.1548 0.0 0.0 -0.0 0.0 -0.0 12.4548 -10.2106 -0.261214 -1.65338 -0.0645379 -0.245519 35.9272 17.1109 4.85685 -36.1245 0.0 0.0 0.0 0.0 0.0 
1108.63 717.357 -1334.91 -69.1582 79.1935 64.6761 3.89603 0.316788 1.77696 3.89776 0.203093 1.79351 3.90317 -0.0557035 1.80411 3.8987 0.229874 1.79027 -12.6356 7.52786 -3.37905 -12.7672 16.4367 -1.0116 -0.0 0.0 -0.0 -1.03155 15.1147 0.128675 -11.7086 -49.4251 64.3341 0.754723 -20.4991 0.136472 -54.4651 -4.60353 4.89581 -0.749873 24.865 5.60081 -0.0 0.0 -0.0 7.94261 -24.3639 -13.69 -39.4247 40.1882 -53.063 1.03409 27.1236 -0.24945 54.3355 1.29637 6.56155 -1.4717 -28.8269 -3.29772 0.0 0.0 0.0 8.8543 19.467 0.0833752 5.33226 -0.256013 -0.777719 15.415 -22.2235 -2.47123 -10.9628 0.0 0.0 -0.0 0.0 -0.0 12.412 -10.5093 -0.112342 -1.14295 -0.0453716 -0.16953 36.7044 17.4918 4.94647 -36.9521 0.0 0.0 0.0 0.0 0.0 
1104.52 718.365 -1334.6 -67.7662 78.9042 63.3746 3.86921 0.286944 1.66499 3.87073 0.18043 1.67987 3.8752 -0.0626982 1.68837 3.87128 0.204696 1.67709 -12.8978 7.93164 -3.15622 -13.0562 17.0613 -0.634132 -0.0 0.0 -0.0 -1.47388 15.0082 -0.595926 -10.6827 -50.4536 64.2721 0.776213 -21.0323 0.144091 -54.5101 -4.60898 4.89775 -0.591703 22.3939 5.50897 -0.0 0.0 -0.0 7.74724 -24.2436 -13.4269 -41.0933 41.4989 -52.029 1.04716 27.4166 -0.255438 53.9004 1.26198 6.5177 -1.77189 -28.8045 -1.67507 0.0 0.0 0.0 8.83547 19.3892 -0.0827964 4.7997 -0.227196 -0.701133 16.3154 -22.139 -2.6018 -10.8779 0.0 0.0 -0.0 0.0 -0.0 12.292 -10.4012 -0.110243 -2.3128 -0.088294 -0.343932 35.6213 17.4018 4.83673 -37.3733 0.0 0.0 0.0 0.0 0.0 
1102.75 716.31 -1331.92 -65.8196 78.7291 61.6449 3.88808 0.248757 1.62354 3.88953 0.144957 1.63607 3.89287 -0.0910201 1.63996 3.88916 0.169087 1.63375 -14.0945 8.28673 -2.75769 -14.3134 17.4852 0.0481954 -0.0 0.0 -0.0 -1.01971 13.3766 -0.0978001 -10.0507 -49.3276 64.1002 0.797749 -21.5629 0.151914 -53.4936 -4.48647 4.85303 -0.338829 18.9598 5.63042 -0.0 0.0 -0.0 7.55455 -24.0766 -13.1724 -42.7328 42.5711 -50.5413 1.09511 28.4784 -0.277911 54.0954 1.27735 6.53738 -1.82905 -29.1891 -1.54873 0.0 0.0 0.0 8.04128 19.5653 0.036644 5.82754 -0.283454 -0.848707 16.0222 -25.3555 -2.64699 -9.88622 0.0 0.0 -0.0 0.0 -0.0 12.7204 -12.3131 -0.129734 -3.12442 -0.115974 -0.465415 34.6497 17.5599 4.74428 -37.7729 0.0 0.0 0.0 0.0 0.0 
1102.24 714.195 -1333.77 -64.9126 78.6182 60.8804 3.92184 0.240048 1.55158 3.92317 0.140843 1.56371 3.92627 -0.0838055 1.5678 3.92288 0.16482 1.56136 -15.3222 8.45154 -2.76881 -15.5964 17.7975 0.292497 -0.0 0.0 -0.0 -1.09698 12.9856 -0.280874 -10.0658 -50.0214 63.031 0.863965 -23.1699 0.177113 -53.768 -4.51946 4.86531 -0.20607 16.6082 5.50139 -0.0 0.0 -0.0 7.4738 -23.9543 -13.0712 -42.9882 42.1414 -50.5304 1.13948 29.4422 -0.299393 54.1585 1.28234 6.54375 -1.7864 -29.099 -1.73455 0.0 0.0 0.0 8.23137 19.3583 -0.156629 5.9053 -0.287818 -0.85983 16.9945 -24.3502 -2.76302 -9.60083 0.0 0.0 -0.0 0.0 -0.0 12.6126 -11.7536 -0.0340543 -3.39243 -0.124736 -0.505613 35.4319 17.3292 4.81525 -38.3424 0.0 0.0 0.0 0.0 0.0 
1102.19 713.041 -1333.71 -67.1619 78.8535 63.1666 3.91866 0.229223 1.54516 3.91998 0.130448 1.55661 3.92279 -0.0931786 1.55928 3.91943 0.15422 1.55443 -15.4588 8.81421 -3.39004 -15.7658 18.8519 -0.138083 -0.0 0.0 -0.0 -1.22808 12.5536 -0.561085 -9.22446 -50.0112 63.2151 1.01365 -26.6622 0.240204 -53.5335 -4.49127 4.85483 0.0300976 14.3989 6.09198 -0.0 0.0 -0.0 7.44947 -24.2727 -13.0006 -43.3085 41.9121 -50.5053 1.13869 29.4253 -0.299009 53.6428 1.24177 6.49161 -1.88406 -29.1065 -1.21594 0.0 0.0 0.0 8.3021 18.685 -0.551394 6.15764 -0.302084 -0.895888 16.6134 -25.424 -2.73847 -8.18717 0.0 0.0 -0.0 0.0 -0.0 13.0726 -12.8333 0.191171 -4.64615 -0.163219 -0.69417 36.5761 18.047 4.95431 -38.1284 0.0 0.0 0.0 0.0 0.0 
1101.67 712.441 -1332.83 -68.193 78.7649 64.2252 3.92292 0.191199 1.49908 3.92416 0.0954328 1.5082 3.92598 -0.120849 1.50638 3.92283 0.118544 1.50656 -15.3253 9.68744 -3.76027 -15.6933 20.7402 -0.191375 -0.0 0.0 -0.0 -1.49462 12.0491 -1.08251 -8.9154 -50.4857 63.1866 1.11432 -28.8978 0.287131 -53.1051 -4.43986 4.83536 0.0853809 10.7487 4.9918 -0.0 0.0 -0.0 7.39968 -24.1597 -12.9427 -44.0143 42.2485 -50.0207 1.13622 29.3721 -0.297796 53.4672 1.22806 6.47377 -2.02688 -29.0564 -0.428361 0.0 0.0 0.0 8.4319 18.311 -0.354049 6.34908 -0.313013 -0.923203 17.9891 -25.7258 -2.9539 -7.17028 0.0 0.0 -0.0 0.0 -0.0 13.5976 -14.1944 0.1896 -5.23584 -0.179889 -0.783133 36.651 17.2173 4.93147 -39.4928 0.0 0.0 0.0 0.0 0.0 
1100.81 714.243 -1331.66 -69.1151 78.7102 65.1435 3.96776 0.218006 1.47503 3.96897 0.123714 1.48591 3.97149 -0.0884822 1.48842 3.96843 0.147671 1.48372 -14.5087 10.3898 -4.00624 -14.887 22.2428 -0.332748 -0.0 0.0 -0.0 -1.20411 11.6903 -0.646919 -8.98779 -50.4353 62.457 1.11954 -29.0114 0.289661 -52.5138 -4.36915 4.80788 0.407942 7.06079 5.6045 -0.0 0.0 -0.0 7.35389 -24.2199 -12.8711 -44.0673 41.9893 -50.2863 1.1074 28.7472 -0.283796 53.3641 1.22003 6.46328 -2.29907 -29.121 0.994862 0.0 0.0 0.0 8.84928 18.0781 -0.375807 5.92896 -0.289149 -0.863213 17.5799 -24.304 -2.84808 -6.72956 0.0 0.0 -0.0 0.0 -0.0 13.8446 -15.2007 0.306679 -5.39236 -0.18416 -0.806774 36.9681 18.951 5.027 -39.617 0.0 0.0 0.0 0.0 0.0 
